<svg xmlns="http://www.w3.org/2000/svg" xmlns:xlink="http://www.w3.org/1999/xlink" viewBox="0 0 629 134.8" xmlns:v="https://vecta.io/nano"><g transform="matrix(.352778 0 0 -.352778 -2.994025 358.244767)"><defs><path id="A" d="M620.7 775.2h718.2v154.6H620.7z"/></defs><clipPath id="B"><use xlink:href="#A"/></clipPath><g clip-path="url(#B)"><defs><path id="C" d="M-38.1 694.3c267.4 129.4 630 118.5 884 113.5 227.8-4.5 378.9 54.6 503.3 113.7 137.8 65.5 242.7 131 382.5 109.9 266.1-40.2 134.7-398 134.7-398H-37.1l-1 60.9"/></defs><clipPath id="D"><use xlink:href="#C"/></clipPath><g clip-path="url(#D)"><defs><path id="E" d="M8.5 1015.5h1783V-1839H8.5v2854.5"/></defs><clipPath id="F"><use xlink:href="#E"/></clipPath><g clip-path="url(#F)"><defs><path id="G" d="M577-923.8h646v1024H577z"/></defs><clipPath id="H"><use xlink:href="#G"/></clipPath><g clip-path="url(#H)"><defs><path id="I" d="M577-923.7h646v1024H577z"/></defs><clipPath id="J"><use xlink:href="#I"/></clipPath><g clip-path="url(#J)"><defs><path id="K" d="M620.7 775.2h718.2v154.6H620.7z"/></defs><clipPath id="L"><use xlink:href="#K"/></clipPath><g clip-path="url(#L)"><linearGradient id="M" gradientUnits="userSpaceOnUse" x1="-47.113" y1="-411.752" x2="625.338" y2="-411.752"><stop offset="0" stop-color="#fad5e5"/><stop offset="1" stop-color="#fff"/></linearGradient><path d="M-15.6,1039.5h1831.1V-1863H-15.6V1039.5z" fill="url(#M)"/></g></g></g></g></g></g></g></svg>