<?xml version="1.0" encoding="utf-8"?>
<!-- Generator: Adobe Illustrator 24.3.0, SVG Export Plug-In . SVG Version: 6.00 Build 0)  -->
<svg version="1.1"
	 id="svg7158" inkscape:version="1.0.1 (3bc2e813f5, 2020-09-07)" sodipodi:docname="clock-pdf.svg" xmlns:cc="http://creativecommons.org/ns#" xmlns:dc="http://purl.org/dc/elements/1.1/" xmlns:inkscape="http://www.inkscape.org/namespaces/inkscape" xmlns:rdf="http://www.w3.org/1999/02/22-rdf-syntax-ns#" xmlns:sodipodi="http://sodipodi.sourceforge.net/DTD/sodipodi-0.dtd" xmlns:svg="http://www.w3.org/2000/svg"
	 xmlns="http://www.w3.org/2000/svg" xmlns:xlink="http://www.w3.org/1999/xlink" x="0px" y="0px" viewBox="0 0 145.3 102.5"
	 style="enable-background:new 0 0 145.3 102.5;" xml:space="preserve">
<style type="text/css">
	.st0{fill-rule:evenodd;clip-rule:evenodd;fill:#2C3394;}
	.st1{fill-rule:evenodd;clip-rule:evenodd;fill:#FFFFFF;}
	.st2{fill:#ED1C24;}
	.st3{fill:#231F20;}
	.st4{fill:none;stroke:#231F20;stroke-width:0.216;stroke-miterlimit:2.613;}
</style>
<sodipodi:namedview  bordercolor="#666666" borderopacity="1.0" id="base" inkscape:current-layer="layer1" inkscape:cx="45.424094" inkscape:cy="219.78059" inkscape:document-rotation="0" inkscape:document-units="mm" inkscape:pageopacity="0.0" inkscape:pageshadow="2" inkscape:window-height="1020" inkscape:window-maximized="0" inkscape:window-width="1624" inkscape:window-x="190" inkscape:window-y="0" inkscape:zoom="0.35" pagecolor="#ffffff" showgrid="false">
	</sodipodi:namedview>
<g id="layer1" transform="translate(-93.814875,-90.016386)" inkscape:groupmode="layer" inkscape:label="Layer 1">
	<g id="g7021" transform="matrix(0.35277777,0,0,-0.35277777,-71.81076,437.76672)">
		<g id="g2803" transform="translate(563.424,924.212)">
			<path id="path2805" class="st0" d="M172.3-112.9l-5.7-8.3l-73.4,75l0.9,0.5"/>
		</g>
		<g id="g2807" transform="translate(550.771,923.998)">
			<path id="path2809" class="st0" d="M149.1-113.3l5.5-6.1L272-18.3l-0.6,0.4"/>
		</g>
		<g id="g2811" transform="translate(557.673,929.197)">
			<path id="path2813" class="st1" d="M161.8-103.8c2.7,0,4.9-2.3,4.9-5.2s-2.2-5.2-4.9-5.2s-4.9,2.3-4.9,5.2
				S159.1-103.8,161.8-103.8"/>
		</g>
		<g id="g2815" transform="translate(559.714,926.158)">
			<path id="path2817" class="st0" d="M165.5-109.3c-1.8-3.3-6-4.5-9.3-2.6c-3.3,1.8-4.5,6-2.6,9.3c1.8,3.3,6,4.5,9.3,2.6
				C166.2-101.9,167.4-106,165.5-109.3z M163.1-108c-1.1-2-3.6-2.7-5.6-1.6c-2,1.1-2.7,3.6-1.6,5.6c1.1,2,3.6,2.7,5.6,1.6
				C163.5-103.5,164.3-106,163.1-108"/>
		</g>
		<g id="g2819" transform="translate(565.538,936.549)">
			<path id="path2821" class="st0" d="M176.2-90.3c-1.8-3.3-6-4.5-9.3-2.6c-3.3,1.8-4.5,6-2.6,9.3c0.4,0.8,1,1.5,1.7,2l1.9-1.1
				c-0.7-0.2-1.2-0.6-1.5-1.1c-0.9-1.6,0.3-3.9,2.7-5.3c2.4-1.3,5-1.1,5.9,0.5c0.3,0.6,0.4,1.2,0.2,1.9l1.9-1.1
				C176.9-88.6,176.7-89.5,176.2-90.3"/>
		</g>
		<g id="g2823" transform="translate(562.752,935.623)">
			<path id="path2825" class="st0" d="M171.1-92l-11-19.5l-2.6,1.5l10.8,19.6L171.1-92z M154.8-120.7l-52-91.6l-1.5,0.8l50.9,92.2"
				/>
		</g>
		<g id="g2827" transform="translate(558.138,985.749)">
			<path id="path2829" class="st0" d="M162.6,0c88.7,0,160.5-73.8,160.5-164.8c0-37.9-12.4-72.7-33.4-100.5l-2.6,2.7
				c17.5,26.1,27.8,57.8,27.8,92C315-81,244.2-8.3,156.9-8.3c-34.4,0-66.3-11.3-92.2-30.4l-4.2,1.1C88.2-14.2,123.8,0,162.6,0"/>
		</g>
		<g id="g2831" transform="translate(518.577,900.167)">
			<path id="path2833" class="st2" d="M90.1-157h6.7v-0.3c0-2.2,0.3-3.7,0.9-4.5c0.6-0.9,1.6-1.3,3-1.3c1.4,0,2.4,0.4,3,1.1
				c0.6,0.8,0.9,2.1,0.9,4.1c0,2-0.3,3.3-1.1,3.9c-0.7,0.6-2.1,0.9-4.1,0.9c-0.5,0-0.8,0-1.1,0c-0.3,0-0.6,0-0.9,0v3.8h0.5
				c2.3,0,3.8,0.3,4.7,0.9c0.9,0.6,1.3,1.7,1.3,3.2c0,1.4-0.3,2.4-0.8,3c-0.5,0.6-1.4,0.8-2.6,0.8c-1.2,0-2-0.3-2.6-0.9
				c-0.5-0.6-0.8-1.7-0.8-3.1v-0.7h-6.6l0,0.4c0,0.1,0,0.4,0,0.7c0,2.5,0.9,4.4,2.6,5.6c1.7,1.3,4.3,1.9,7.7,1.9
				c3.2,0,5.6-0.7,7.3-2c1.7-1.3,2.6-3.1,2.6-5.5c0-1.6-0.4-3-1.1-4c-0.8-1-1.8-1.7-3.3-2.1c1.8-0.3,3.1-1.1,4-2.2
				c0.9-1.1,1.3-2.7,1.3-4.7c0-3.1-0.9-5.5-2.7-7c-1.8-1.5-4.6-2.3-8.3-2.3c-3.5,0-6.2,0.7-7.9,2.2c-1.7,1.5-2.5,3.8-2.5,6.9
				c0,0.1,0,0.3,0,0.6C90-157.3,90.1-157.1,90.1-157"/>
		</g>
		<g id="g2835" transform="translate(528.771,900.167)">
			<path id="path2837" class="st2" d="M108.8-157h6.7v-0.3c0-2.2,0.3-3.7,0.9-4.5c0.6-0.9,1.6-1.3,3-1.3c1.4,0,2.4,0.4,3,1.1
				c0.6,0.8,0.9,2.1,0.9,4.1c0,2-0.3,3.3-1.1,3.9c-0.7,0.6-2.1,0.9-4.1,0.9c-0.5,0-0.8,0-1.1,0c-0.3,0-0.6,0-0.9,0v3.8h0.5
				c2.3,0,3.8,0.3,4.7,0.9c0.9,0.6,1.3,1.7,1.3,3.2c0,1.4-0.3,2.4-0.8,3c-0.5,0.6-1.4,0.8-2.6,0.8c-1.2,0-2-0.3-2.6-0.9
				c-0.5-0.6-0.8-1.7-0.8-3.1v-0.7h-6.6l0,0.4c0,0.1,0,0.4,0,0.7c0,2.5,0.9,4.4,2.6,5.6s4.3,1.9,7.7,1.9c3.2,0,5.6-0.7,7.3-2
				c1.7-1.3,2.6-3.1,2.6-5.5c0-1.6-0.4-3-1.1-4c-0.8-1-1.8-1.7-3.3-2.1c1.8-0.3,3.1-1.1,4-2.2c0.9-1.1,1.3-2.7,1.3-4.7
				c0-3.1-0.9-5.5-2.7-7c-1.8-1.5-4.6-2.3-8.3-2.3c-3.5,0-6.2,0.7-7.9,2.2c-1.7,1.5-2.5,3.8-2.5,6.9c0,0.1,0,0.3,0,0.6
				C108.8-157.3,108.8-157.1,108.8-157"/>
		</g>
		<g id="g2839" transform="translate(540.615,896.724)">
			<path id="path2841" class="st2" d="M130.5-163.3c0.4,3.6,1.4,7.4,3,11.4c1.6,4,3.9,8.2,6.7,12.5h-14.4v4.8H147v-4.2
				c-2.6-3.7-4.7-7.5-6.2-11.6c-1.5-4.1-2.5-8.4-3-12.8"/>
		</g>
		<g id="g2843" transform="translate(550.809,896.724)">
			<path id="path2845" class="st2" d="M149.2-163.3c0.4,3.6,1.4,7.4,3,11.4c1.6,4,3.9,8.2,6.7,12.5h-14.4v4.8h21.2v-4.2
				c-2.6-3.7-4.7-7.5-6.2-11.6c-1.5-4.1-2.5-8.4-3-12.8"/>
		</g>
		<g id="g2847" transform="translate(565.529,900.233)">
			<path id="path2849" class="st2" d="M176.2-156.9h7.1v11.8L176.2-156.9z M183.2-166.8v5.7h-12.1v4.6l11.3,18.3h7.3v-18.6h3.2v-4.3
				h-3.2v-5.7"/>
		</g>
		<g id="g2851" transform="translate(575.723,900.233)">
			<path id="path2853" class="st2" d="M194.9-156.9h7.1v11.8L194.9-156.9z M201.9-166.8v5.7h-12.1v4.6l11.3,18.3h7.3v-18.6h3.2v-4.3
				h-3.2v-5.7"/>
		</g>
		<g id="g2855" transform="translate(585.884,896.724)">
			<path id="path2857" class="st2" d="M213.5-163.3c0.4,3.6,1.4,7.4,3,11.4c1.6,4,3.9,8.2,6.7,12.5h-14.4v4.8h21.2v-4.2
				c-2.6-3.7-4.7-7.5-6.2-11.6c-1.5-4.1-2.5-8.4-3-12.8"/>
		</g>
		<g id="g2859" transform="translate(596.079,896.724)">
			<path id="path2861" class="st2" d="M232.2-163.3c0.4,3.6,1.4,7.4,3,11.4c1.6,4,3.9,8.2,6.7,12.5h-14.4v4.8h21.2v-4.2
				c-2.6-3.7-4.7-7.5-6.2-11.6c-1.5-4.1-2.5-8.4-3-12.8"/>
		</g>
		<g id="g2863" transform="translate(519.289,887.121)">
			<path id="path2865" class="st3" d="M91.4-180.9c0-2,0.1-3.3,0.3-3.9c0.2-0.5,0.6-0.8,1.2-0.8c0.5,0,0.9,0.2,1,0.7
				c0.2,0.5,0.3,1.6,0.3,3.5c0,1.8-0.1,3-0.3,3.4c-0.2,0.5-0.5,0.7-1,0.7c-0.6,0-1-0.2-1.2-0.7C91.5-178.4,91.4-179.4,91.4-180.9z
				 M88.5-192v16.8h2.7v-1.3c0.2,0.6,0.6,1,1,1.2s0.9,0.4,1.6,0.4c1.2,0,2.1-0.5,2.6-1.4c0.5-1,0.7-2.7,0.7-5.1
				c0-2.5-0.2-4.3-0.7-5.2c-0.5-1-1.3-1.4-2.5-1.4c-0.6,0-1.1,0.1-1.5,0.4c-0.4,0.2-0.7,0.6-1,1.1v-5.3"/>
		</g>
		<g id="g2867" transform="translate(522.634,884.714)">
			<path id="path2869" class="st3" d="M97.5-185.4v12.6h2.8v-2c0.4,0.8,0.8,1.5,1.3,1.8c0.5,0.4,1,0.5,1.7,0.6v-3.5l-0.3,0l-0.4,0
				c-0.6,0-1.1-0.2-1.5-0.6c-0.4-0.4-0.5-0.9-0.5-1.5v-7.4"/>
		</g>
		<g id="g2871" transform="translate(526.719,887.495)">
			<path id="path2873" class="st3" d="M105-180.3h2.8v0.5c0,0.9-0.1,1.5-0.3,1.8c-0.2,0.3-0.6,0.5-1.1,0.5c-0.5,0-0.9-0.2-1.1-0.5
				c-0.2-0.3-0.3-0.9-0.3-1.8l0-0.2L105-180.3z M107.9-183.8h2.7l0-0.2l0-0.2c0-1.4-0.3-2.5-1-3.2c-0.7-0.7-1.8-1-3.2-1
				c-0.8,0-1.4,0.1-2,0.3c-0.5,0.2-1,0.5-1.3,0.9c-0.4,0.5-0.7,1.1-0.9,1.8c-0.2,0.7-0.2,2.1-0.2,4c0,1.5,0.1,2.6,0.2,3.3
				c0.1,0.7,0.4,1.2,0.7,1.6c0.4,0.4,0.8,0.8,1.4,1c0.6,0.2,1.3,0.3,2.1,0.3c0.8,0,1.4-0.1,2-0.4c0.6-0.2,1-0.6,1.4-1.1
				c0.3-0.4,0.5-0.9,0.7-1.6c0.1-0.6,0.2-1.7,0.2-3.1v-1H105l0-0.3l0-0.5c0-1.2,0.1-2,0.3-2.5c0.2-0.5,0.6-0.7,1.1-0.7
				c0.5,0,0.9,0.2,1.1,0.6C107.8-185.3,107.9-184.7,107.9-183.8"/>
		</g>
		<g id="g2875" transform="translate(530.144,884.714)">
			<path id="path2877" class="st3" d="M111.3-185.4v10.4h-1.1v2.2h1.1v1.3c0,1.1,0.2,1.8,0.6,2.3c0.4,0.5,1.1,0.7,2.1,0.7l0.6,0
				c0.2,0,0.5,0,0.8-0.1v-2.2l-0.2,0l-0.1,0c-0.3,0-0.5-0.1-0.7-0.2c-0.1-0.1-0.2-0.3-0.2-0.6v-1.2h1.2v-2.2h-1.2v-10.4"/>
		</g>
		<path id="path2879" class="st3" d="M651.6,713.5h-2.9v2.6h2.9V713.5z M651.6,699.4h-2.9v12.6h2.9V699.4z"/>
		<g id="g2881" transform="translate(534.761,884.714)">
			<path id="path2883" class="st3" d="M119.7-185.4l3.3,6.4l-3.2,6.1h3.3l1.4-3.1l1.4,3.1h3.2l-3.1-6.1l3.2-6.4h-3.2l-1.4,3.4
				l-1.5-3.4"/>
		</g>
		<g id="g2885" transform="translate(543.094,887.143)">
			<path id="path2887" class="st3" d="M135-180.9v4.5c0,1.3-0.1,2.2-0.3,2.6c-0.2,0.4-0.6,0.6-1.2,0.6c-0.6,0-0.9-0.2-1.2-0.6
				c-0.2-0.4-0.3-1.3-0.3-2.7v-6.1c0-1.3,0.1-2.2,0.3-2.6c0.2-0.4,0.6-0.6,1.2-0.6c0.6,0,0.9,0.2,1.2,0.6c0.2,0.4,0.3,1.3,0.3,2.7
				V-180.9z M129-179.4c0,2,0.1,3.5,0.2,4.4c0.1,1,0.3,1.7,0.6,2.2c0.4,0.7,0.9,1.1,1.5,1.4c0.6,0.3,1.4,0.4,2.3,0.4
				c0.9,0,1.7-0.1,2.3-0.4c0.6-0.3,1.1-0.8,1.5-1.4c0.3-0.5,0.5-1.2,0.6-2.2c0.1-1,0.2-2.4,0.2-4.4c0-2-0.1-3.5-0.2-4.5
				c-0.1-1-0.3-1.7-0.6-2.2c-0.4-0.7-0.9-1.2-1.5-1.5c-0.6-0.3-1.4-0.5-2.3-0.5c-0.9,0-1.7,0.2-2.3,0.5s-1.1,0.8-1.5,1.5
				c-0.3,0.5-0.5,1.2-0.6,2.1C129-183,129-181.5,129-179.4"/>
		</g>
		<g id="g2889" transform="translate(546.708,884.714)">
			<path id="path2891" class="st3" d="M141.7-185.4v11.8H138v2c1.4,0,2.4,0.3,3.2,0.8c0.8,0.5,1.2,1.3,1.4,2.2h2.1v-16.9"/>
		</g>
		<g id="g2893" transform="translate(551.149,884.714)">
			<path id="path2895" class="st3" d="M149.8-185.4v11.8h-3.7v2c1.4,0,2.4,0.3,3.2,0.8c0.8,0.5,1.2,1.3,1.4,2.2h2.1v-16.9"/>
		</g>
		<g id="g2897" transform="translate(554.284,883.985)">
			<path id="path2899" class="st3" d="M155.6-186.7h-1.6l6.3,19.2h1.6"/>
		</g>
		<g id="g2901" transform="translate(559.352,887.143)">
			<path id="path2903" class="st3" d="M164.9-180.9v4.5c0,1.3-0.1,2.2-0.3,2.6c-0.2,0.4-0.6,0.6-1.2,0.6c-0.6,0-0.9-0.2-1.2-0.6
				c-0.2-0.4-0.3-1.3-0.3-2.7v-6.1c0-1.3,0.1-2.2,0.3-2.6c0.2-0.4,0.6-0.6,1.2-0.6c0.6,0,0.9,0.2,1.2,0.6c0.2,0.4,0.3,1.3,0.3,2.7
				V-180.9z M158.8-179.4c0,2,0.1,3.5,0.2,4.4c0.1,1,0.3,1.7,0.6,2.2c0.4,0.7,0.9,1.1,1.5,1.4c0.6,0.3,1.4,0.4,2.3,0.4
				c0.9,0,1.7-0.1,2.3-0.4c0.6-0.3,1.1-0.8,1.5-1.4c0.3-0.5,0.5-1.2,0.6-2.2c0.1-1,0.2-2.4,0.2-4.4c0-2-0.1-3.5-0.2-4.5
				c-0.1-1-0.3-1.7-0.6-2.2c-0.4-0.7-0.9-1.2-1.5-1.5c-0.6-0.3-1.4-0.5-2.3-0.5c-0.9,0-1.7,0.2-2.3,0.5c-0.6,0.3-1.1,0.8-1.5,1.5
				c-0.3,0.5-0.5,1.2-0.6,2.1C158.8-183,158.8-181.5,158.8-179.4"/>
		</g>
		<g id="g2905" transform="translate(561.651,884.714)">
			<path id="path2907" class="st3" d="M169.1-185.4l0,0.3l0,0.3c0,1.3,0.3,2.5,0.8,3.7c0.5,1.2,1.3,2.3,2.4,3.4
				c0.2,0.2,0.5,0.5,0.9,0.9c0.7,0.7,1.2,1.2,1.4,1.6c0.2,0.3,0.4,0.7,0.5,1.1c0.1,0.4,0.2,0.8,0.2,1.3c0,0.7-0.1,1.2-0.4,1.6
				c-0.3,0.3-0.6,0.5-1.2,0.5c-0.6,0-1-0.2-1.2-0.6c-0.3-0.4-0.4-1.1-0.4-2l0-0.4l0-0.2h-2.9l0,0.3l0,0.3c0,1.8,0.4,3,1.1,3.8
				c0.7,0.8,1.9,1.2,3.5,1.2c1.5,0,2.6-0.4,3.4-1.1c0.8-0.7,1.2-1.8,1.2-3.2c0-0.6-0.1-1.2-0.2-1.8c-0.1-0.5-0.4-1.1-0.7-1.6
				c-0.2-0.4-0.8-1-1.6-1.8c-0.4-0.4-0.7-0.8-1-1l0,0c-1.6-1.8-2.5-3-2.7-3.7h5.9v-2.7"/>
		</g>
		<g id="g2909" transform="translate(566.093,884.714)">
			<path id="path2911" class="st3" d="M177.2-185.4l0,0.3l0,0.3c0,1.3,0.3,2.5,0.8,3.7c0.5,1.2,1.3,2.3,2.4,3.4
				c0.2,0.2,0.5,0.5,0.9,0.9c0.7,0.7,1.2,1.2,1.4,1.6c0.2,0.3,0.4,0.7,0.5,1.1c0.1,0.4,0.2,0.8,0.2,1.3c0,0.7-0.1,1.2-0.4,1.6
				c-0.3,0.3-0.6,0.5-1.2,0.5c-0.6,0-1-0.2-1.2-0.6c-0.3-0.4-0.4-1.1-0.4-2l0-0.4l0-0.2h-2.9l0,0.3l0,0.3c0,1.8,0.4,3,1.1,3.8
				c0.7,0.8,1.9,1.2,3.5,1.2c1.5,0,2.6-0.4,3.4-1.1c0.8-0.7,1.2-1.8,1.2-3.2c0-0.6-0.1-1.2-0.2-1.8c-0.1-0.5-0.4-1.1-0.7-1.6
				c-0.2-0.4-0.8-1-1.6-1.8c-0.4-0.4-0.7-0.8-1-1l0,0c-1.6-1.8-2.5-3-2.7-3.7h5.9v-2.7"/>
		</g>
		<g id="g2913" transform="translate(570.542,883.985)">
			<path id="path2915" class="st3" d="M185.4-186.7h-1.6l6.3,19.2h1.6"/>
		</g>
		<g id="g2917" transform="translate(575.61,887.143)">
			<path id="path2919" class="st3" d="M194.7-180.9v4.5c0,1.3-0.1,2.2-0.3,2.6c-0.2,0.4-0.6,0.6-1.2,0.6s-0.9-0.2-1.2-0.6
				c-0.2-0.4-0.3-1.3-0.3-2.7v-6.1c0-1.3,0.1-2.2,0.3-2.6c0.2-0.4,0.6-0.6,1.2-0.6c0.6,0,0.9,0.2,1.2,0.6c0.2,0.4,0.3,1.3,0.3,2.7
				V-180.9z M188.6-179.4c0,2,0.1,3.5,0.2,4.4c0.1,1,0.3,1.7,0.6,2.2c0.4,0.7,0.9,1.1,1.5,1.4c0.6,0.3,1.4,0.4,2.3,0.4
				s1.7-0.1,2.3-0.4c0.6-0.3,1.1-0.8,1.5-1.4c0.3-0.5,0.5-1.2,0.6-2.2c0.1-1,0.2-2.4,0.2-4.4c0-2-0.1-3.5-0.2-4.5
				c-0.1-1-0.3-1.7-0.6-2.2c-0.4-0.7-0.9-1.2-1.5-1.5c-0.6-0.3-1.4-0.5-2.3-0.5s-1.7,0.2-2.3,0.5s-1.1,0.8-1.5,1.5
				c-0.3,0.5-0.5,1.2-0.6,2.1C188.7-183,188.6-181.5,188.6-179.4"/>
		</g>
		<g id="g2921" transform="translate(577.893,886.703)">
			<path id="path2923" class="st3" d="M198.9-181.7h2.9v-0.2c0-1.3,0.1-2.1,0.4-2.6c0.2-0.5,0.7-0.7,1.3-0.7c0.6,0,1,0.2,1.3,0.7
				c0.2,0.4,0.4,1.2,0.4,2.4c0,1.1-0.2,1.9-0.5,2.2c-0.3,0.4-0.9,0.5-1.8,0.5l-0.5,0l-0.4,0v2.2h0.2c1,0,1.7,0.2,2,0.5
				c0.4,0.3,0.6,1,0.6,1.9c0,0.8-0.1,1.4-0.3,1.7c-0.2,0.3-0.6,0.5-1.1,0.5c-0.5,0-0.9-0.2-1.1-0.5c-0.2-0.4-0.3-1-0.3-1.8v-0.4H199
				l0,0.2l0,0.4c0,1.4,0.4,2.5,1.1,3.3c0.8,0.7,1.9,1.1,3.4,1.1c1.4,0,2.4-0.4,3.2-1.1c0.8-0.7,1.1-1.8,1.1-3.2
				c0-0.9-0.2-1.7-0.5-2.3c-0.3-0.6-0.8-1-1.4-1.2c0.8-0.2,1.4-0.6,1.7-1.3c0.4-0.6,0.6-1.5,0.6-2.7c0-1.8-0.4-3.2-1.2-4.1
				c-0.8-0.9-2-1.3-3.6-1.3c-1.5,0-2.7,0.4-3.4,1.3c-0.7,0.9-1.1,2.2-1.1,4l0,0.3L198.9-181.7"/>
		</g>
		<g id="g2925" transform="translate(582.335,886.703)">
			<path id="path2927" class="st3" d="M207-181.7h2.9v-0.2c0-1.3,0.1-2.1,0.4-2.6c0.2-0.5,0.7-0.7,1.3-0.7c0.6,0,1,0.2,1.3,0.7
				c0.2,0.4,0.4,1.2,0.4,2.4c0,1.1-0.2,1.9-0.5,2.2c-0.3,0.4-0.9,0.5-1.8,0.5l-0.5,0l-0.4,0v2.2h0.2c1,0,1.7,0.2,2,0.5
				c0.4,0.3,0.6,1,0.6,1.9c0,0.8-0.1,1.4-0.3,1.7c-0.2,0.3-0.6,0.5-1.1,0.5c-0.5,0-0.9-0.2-1.1-0.5c-0.2-0.4-0.3-1-0.3-1.8v-0.4
				h-2.9l0,0.2l0,0.4c0,1.4,0.4,2.5,1.1,3.3c0.8,0.7,1.9,1.1,3.4,1.1c1.4,0,2.4-0.4,3.2-1.1c0.8-0.7,1.1-1.8,1.1-3.2
				c0-0.9-0.2-1.7-0.5-2.3c-0.3-0.6-0.8-1-1.4-1.2c0.8-0.2,1.4-0.6,1.7-1.3c0.4-0.6,0.6-1.5,0.6-2.7c0-1.8-0.4-3.2-1.2-4.1
				c-0.8-0.9-2-1.3-3.6-1.3c-1.5,0-2.7,0.4-3.4,1.3c-0.7,0.9-1.1,2.2-1.1,4l0,0.3L207-181.7"/>
		</g>
		<g id="g2929" transform="translate(586.801,883.985)">
			<path id="path2931" class="st3" d="M215.2-186.7h-1.6l6.3,19.2h1.6"/>
		</g>
		<g id="g2933" transform="translate(591.869,887.143)">
			<path id="path2935" class="st3" d="M224.5-180.9v4.5c0,1.3-0.1,2.2-0.3,2.6c-0.2,0.4-0.6,0.6-1.2,0.6c-0.6,0-0.9-0.2-1.2-0.6
				c-0.2-0.4-0.3-1.3-0.3-2.7v-6.1c0-1.3,0.1-2.2,0.3-2.6c0.2-0.4,0.6-0.6,1.2-0.6c0.6,0,0.9,0.2,1.2,0.6c0.2,0.4,0.3,1.3,0.3,2.7
				V-180.9z M218.4-179.4c0,2,0.1,3.5,0.2,4.4c0.1,1,0.3,1.7,0.6,2.2c0.4,0.7,0.9,1.1,1.5,1.4c0.6,0.3,1.4,0.4,2.3,0.4
				c0.9,0,1.7-0.1,2.3-0.4c0.6-0.3,1.1-0.8,1.5-1.4c0.3-0.5,0.5-1.2,0.6-2.2c0.1-1,0.2-2.4,0.2-4.4c0-2-0.1-3.5-0.2-4.5
				c-0.1-1-0.3-1.7-0.6-2.2c-0.4-0.7-0.9-1.2-1.5-1.5c-0.6-0.3-1.4-0.5-2.3-0.5c-0.9,0-1.7,0.2-2.3,0.5c-0.6,0.3-1.1,0.8-1.5,1.5
				c-0.3,0.5-0.5,1.2-0.6,2.1C218.5-183,218.4-181.5,218.4-179.4"/>
		</g>
		<g id="g2937" transform="translate(594.885,886.741)">
			<path id="path2939" class="st3" d="M230.1-181.6h3.1v6.8L230.1-181.6z M233.1-187.4v3.3h-5.3v2.7l4.9,10.6h3.2v-10.7h1.4v-2.5
				h-1.4v-3.3"/>
		</g>
		<g id="g2941" transform="translate(599.327,886.741)">
			<path id="path2943" class="st3" d="M238.2-181.6h3.1v6.8L238.2-181.6z M241.2-187.4v3.3H236v2.7l4.9,10.6h3.2v-10.7h1.4v-2.5
				h-1.4v-3.3"/>
		</g>
		<g id="g2945" transform="translate(518.19,893.16)">
			<path id="path2947" class="st4" d="M89.3-169.9h236.3"/>
		</g>
		<g id="g2949" transform="translate(480.418,964.042)">
			<path id="path2951" class="st3" d="M20-39.8H22c1,0,1.7,0.1,2.1,0.2c0.4,0.1,0.7,0.4,0.9,0.7c0.4,0.6,0.7,1.4,0.9,2.5
				c0.2,1.1,0.3,2.8,0.3,5.1c0,2.3-0.1,3.9-0.3,5c-0.2,1-0.5,1.8-1,2.3c-0.3,0.3-0.6,0.5-1,0.6c-0.4,0.1-1,0.2-1.9,0.2H20V-39.8z
				 M15.8-43.3v23.4h7c1.4,0,2.6-0.1,3.4-0.4c0.8-0.2,1.5-0.6,2.1-1.2c0.8-0.8,1.4-1.8,1.7-3c0.3-1.2,0.5-3.1,0.5-5.7
				c0-3.3-0.1-5.7-0.3-7.1c-0.2-1.4-0.6-2.5-1.2-3.5c-0.5-1-1.3-1.6-2.2-2c-1-0.4-2.6-0.6-5-0.6"/>
		</g>
		<g id="g2953" transform="translate(486.595,966.715)">
			<path id="path2955" class="st3" d="M31.4-34.9h4v0.7c0,1.2-0.1,2-0.4,2.5c-0.3,0.5-0.8,0.7-1.6,0.7c-0.7,0-1.2-0.2-1.5-0.7
				c-0.3-0.5-0.5-1.3-0.5-2.5l0-0.3L31.4-34.9z M35.5-39.9h3.8l0-0.3l0-0.3c0-2-0.5-3.5-1.4-4.4c-1-0.9-2.5-1.4-4.6-1.4
				c-1.1,0-2,0.1-2.8,0.4c-0.7,0.3-1.3,0.7-1.8,1.3c-0.6,0.7-1,1.5-1.2,2.6c-0.2,1-0.3,2.9-0.3,5.6c0,2.1,0.1,3.7,0.3,4.6
				c0.2,0.9,0.5,1.7,1,2.3c0.5,0.6,1.2,1.1,2,1.4c0.8,0.3,1.8,0.5,2.9,0.5c1.1,0,2-0.2,2.8-0.5c0.8-0.3,1.4-0.8,2-1.5
				c0.4-0.6,0.7-1.3,0.9-2.2c0.2-0.9,0.3-2.3,0.3-4.3v-1.3h-8l0-0.4c0-0.2,0-0.4,0-0.7c0-1.7,0.2-2.8,0.5-3.5c0.3-0.7,0.8-1,1.6-1
				c0.7,0,1.2,0.3,1.6,0.8C35.3-42,35.5-41.1,35.5-39.9"/>
		</g>
		<g id="g2957" transform="translate(491.82,966.024)">
			<path id="path2959" class="st3" d="M41-36.2c0-2.7,0.1-4.4,0.4-5.1c0.3-0.7,0.8-1,1.5-1c0.8,0,1.4,0.3,1.7,0.9
				c0.3,0.6,0.4,1.9,0.4,3.8c0,3.1-0.1,5.1-0.4,5.8c-0.3,0.8-0.9,1.2-1.7,1.2c-0.7,0-1.2-0.3-1.5-1C41.1-32.3,41-33.8,41-36.2z
				 M45.1-43.4c-0.3-0.8-0.8-1.3-1.4-1.7c-0.6-0.4-1.3-0.6-2.2-0.6c-1.7,0-2.9,0.7-3.6,2c-0.7,1.3-1,3.7-1,7.2c0,3.6,0.3,6,1,7.4
				c0.7,1.3,1.9,2,3.5,2c0.8,0,1.5-0.2,2.1-0.5c0.6-0.3,1-0.8,1.4-1.5v7.3h4.1v-23.4h-3.9"/>
		</g>
		<path id="path2961" class="st3" d="M548.3,940.6h-4v3.7h4V940.6z M548.3,920.8h-4v17.6h4V920.8z"/>
		<g id="g2963" transform="translate(502.459,965.261)">
			<path id="path2965" class="st3" d="M60.5-37.6l0-0.4c0-0.1,0-0.3,0-0.6c0-2.2-0.5-3.8-1.4-4.8c-0.9-1-2.4-1.6-4.3-1.6
				c-2.2,0-3.8,0.7-4.6,2c-0.9,1.3-1.3,3.7-1.3,7.3c0,3.6,0.4,6,1.3,7.3c0.9,1.3,2.4,2,4.6,2c1.9,0,3.4-0.5,4.3-1.4
				c0.9-1,1.4-2.5,1.4-4.5V-33h-3.9v0.4c0,1.1-0.1,1.8-0.4,2.3s-0.7,0.7-1.3,0.7c-0.6,0-1.1-0.2-1.4-0.7c-0.3-0.5-0.4-1.2-0.4-2.3
				v-6.1c0-1.2,0.1-2.1,0.4-2.5c0.3-0.5,0.7-0.7,1.4-0.7c0.7,0,1.2,0.3,1.4,0.8c0.3,0.6,0.4,1.6,0.4,3.1v0.4"/>
		</g>
		<g id="g2967" transform="translate(506.28,966.077)">
			<path id="path2969" class="st3" d="M67.5-36.1c-1.5-0.8-2.6-1.5-3.1-2.1c-0.5-0.6-0.8-1.3-0.8-2.2c0-0.8,0.1-1.4,0.4-1.7
				c0.3-0.4,0.7-0.6,1.4-0.6c0.7,0,1.2,0.3,1.6,0.9c0.4,0.6,0.5,1.6,0.5,2.8V-36.1z M68.1-45.3c-0.1,0.1-0.2,0.3-0.2,0.6
				c-0.1,0.3-0.1,0.6-0.2,1.1c-0.4-0.7-1-1.3-1.6-1.6c-0.7-0.4-1.5-0.6-2.4-0.6c-1.3,0-2.4,0.5-3.1,1.4c-0.7,0.9-1.1,2.2-1.1,3.8
				c0,1.5,0.3,2.6,1,3.5c0.7,0.9,1.9,1.7,3.9,2.6c0.2,0.1,0.5,0.2,0.8,0.4c1.6,0.7,2.4,1.5,2.4,2.4c0,0.6-0.2,1-0.5,1.3
				c-0.3,0.3-0.8,0.4-1.3,0.4c-0.7,0-1.3-0.2-1.6-0.6c-0.3-0.4-0.5-1-0.5-1.9v-0.3h-4c0,2,0.5,3.4,1.5,4.3c1,0.9,2.5,1.4,4.7,1.4
				c2.1,0,3.6-0.4,4.5-1.2c0.9-0.8,1.3-2.3,1.3-4.3v-9.9c0-0.5,0-0.9,0.1-1.3c0.1-0.4,0.2-0.8,0.5-1.2"/>
		</g>
		<g id="g2971" transform="translate(510.388,965.121)">
			<path id="path2973" class="st3" d="M75-37.8V-39c0-0.9,0.1-1.5,0.3-1.8c0.2-0.3,0.5-0.4,1-0.4l0.3,0l0.2,0v-3.2
				c-0.6-0.1-1.1-0.1-1.4-0.1c-0.3,0-0.6,0-0.8,0c-1.4,0-2.3,0.3-2.8,0.8C71.2-43.2,71-42,71-40.3v10.6h-1.6v3H71v4.8H75v-4.8h1.7
				v-3H75"/>
		</g>
		<g id="g2975" transform="translate(513.16,966.715)">
			<path id="path2977" class="st3" d="M80.1-34.9h4v0.7c0,1.2-0.1,2-0.4,2.5c-0.3,0.5-0.8,0.7-1.6,0.7c-0.7,0-1.2-0.2-1.5-0.7
				c-0.3-0.5-0.5-1.3-0.5-2.5l0-0.3L80.1-34.9z M84.2-39.9h3.8l0-0.3l0-0.3c0-2-0.5-3.5-1.4-4.4c-1-0.9-2.5-1.4-4.6-1.4
				c-1.1,0-2,0.1-2.8,0.4c-0.7,0.3-1.3,0.7-1.8,1.3c-0.6,0.7-1,1.5-1.2,2.6c-0.2,1-0.3,2.9-0.3,5.6c0,2.1,0.1,3.7,0.3,4.6
				c0.2,0.9,0.5,1.7,1,2.3c0.5,0.6,1.2,1.1,2,1.4c0.8,0.3,1.8,0.5,2.9,0.5c1.1,0,2-0.2,2.8-0.5c0.8-0.3,1.4-0.8,2-1.5
				c0.4-0.6,0.7-1.3,0.9-2.2c0.2-0.9,0.3-2.3,0.3-4.3v-1.3h-8l0-0.4c0-0.2,0-0.4,0-0.7c0-1.7,0.2-2.8,0.5-3.5c0.3-0.7,0.8-1,1.6-1
				c0.7,0,1.2,0.3,1.6,0.8C84.1-42,84.2-41.1,84.2-39.9"/>
		</g>
		<g id="g2979" transform="translate(518.385,966.024)">
			<path id="path2981" class="st3" d="M89.7-36.2c0-2.7,0.1-4.4,0.4-5.1c0.3-0.7,0.8-1,1.5-1c0.8,0,1.4,0.3,1.7,0.9
				c0.3,0.6,0.4,1.9,0.4,3.8c0,3.1-0.1,5.1-0.4,5.8c-0.3,0.8-0.9,1.2-1.7,1.2c-0.7,0-1.2-0.3-1.5-1C89.8-32.3,89.7-33.8,89.7-36.2z
				 M93.8-43.4c-0.3-0.8-0.8-1.3-1.4-1.7c-0.6-0.4-1.3-0.6-2.2-0.6c-1.7,0-2.9,0.7-3.6,2c-0.7,1.3-1,3.7-1,7.2c0,3.6,0.3,6,1,7.4
				c0.7,1.3,1.9,2,3.5,2c0.8,0,1.5-0.2,2.1-0.5c0.6-0.3,1-0.8,1.4-1.5v7.3h4.1v-23.4h-3.9"/>
		</g>
		<g id="g2983" transform="translate(473.886,950.492)">
			<path id="path2985" class="st3" d="M8.1-64.7h5.4l0-0.6c0-0.3,0-0.5,0-0.6c0-3.4-0.7-6-2.2-7.7C9.9-75.2,7.6-76,4.7-76
				C3.2-76,2-75.9,1-75.5c-1,0.4-1.9,0.9-2.6,1.7c-1,1-1.7,2.5-2.1,4.3c-0.4,1.8-0.6,5-0.6,9.5c0,3.1,0.1,5.5,0.4,7.3
				c0.2,1.8,0.6,3.2,1.1,4.1c0.8,1.4,1.8,2.4,3,3c1.2,0.6,2.7,0.9,4.6,0.9c3,0,5.2-0.8,6.6-2.4c1.4-1.6,2.1-4.1,2.1-7.6H7.9v0.7
				c0,1.6-0.3,2.8-0.8,3.6c-0.5,0.8-1.3,1.2-2.4,1.2c-1.3,0-2.2-0.5-2.7-1.6C1.6-52,1.3-55,1.3-60c0-5.4,0.2-8.6,0.7-9.8
				c0.5-1.2,1.4-1.7,2.7-1.7c1.2,0,2.1,0.5,2.6,1.4c0.5,0.9,0.7,2.6,0.7,5"/>
		</g>
		<g id="g2987" transform="translate(482.47,954.648)">
			<path id="path2989" class="st3" d="M23.8-57.1v-22.4h-5.1v2.2c-0.5-0.9-1.2-1.6-2-2.1c-0.8-0.5-1.7-0.7-2.7-0.7
				c-1.6,0-2.9,0.5-3.7,1.4c-0.9,0.9-1.3,2.3-1.3,4v17.6h5v-14.6c0-1.5,0.2-2.5,0.5-3.1c0.3-0.6,0.9-0.8,1.7-0.8
				c0.9,0,1.5,0.3,1.8,0.9c0.4,0.6,0.5,1.7,0.5,3.3v14.3"/>
		</g>
		<g id="g2991" transform="translate(483.77,949.37)">
			<path id="path2993" class="st3" d="M26.2-66.7h4.7v-0.6c0-1.3,0.2-2.2,0.6-2.8c0.4-0.5,1.1-0.8,2-0.8c0.7,0,1.3,0.2,1.7,0.6
				c0.4,0.4,0.6,0.9,0.6,1.6c0,0.9-0.8,1.8-2.5,2.9c-0.4,0.3-0.8,0.5-1,0.7L32-65c-3.8,2.6-5.7,5.2-5.7,7.7c0,2,0.6,3.5,1.9,4.6
				c1.2,1,3,1.6,5.4,1.6c2.3,0,4-0.6,5.1-1.7c1.1-1.2,1.7-2.9,1.7-5.3v-0.5h-4.6v0.5c0,1.1-0.2,1.9-0.6,2.4c-0.4,0.5-1.1,0.8-2,0.8
				c-0.6,0-1.2-0.2-1.5-0.5c-0.4-0.4-0.6-0.8-0.6-1.4c0-0.5,0.2-1,0.5-1.5c0.3-0.4,1.1-1.1,2.3-1.9c0.3-0.2,0.7-0.4,1.2-0.8
				c3.8-2.5,5.6-5,5.6-7.5c0-2-0.6-3.5-1.9-4.6c-1.3-1.1-3.1-1.6-5.4-1.6c-2.5,0-4.3,0.6-5.5,1.7c-1.2,1.2-1.8,3-1.8,5.4l0,0.4
				L26.2-66.7"/>
		</g>
		<g id="g2995" transform="translate(492.137,949.664)">
			<path id="path2997" class="st3" d="M41.5-66.2v-1.5c0-1.2,0.1-2,0.3-2.3c0.2-0.3,0.6-0.5,1.3-0.5l0.3,0l0.2,0v-4
				c-0.7-0.1-1.3-0.1-1.8-0.2c-0.4,0-0.8,0-1,0c-1.7,0-2.9,0.3-3.6,1c-0.7,0.7-1,2.1-1,4.3v13.4h-2v3.9h2v6.1h5.2v-6.1h2.1v-3.9
				h-2.1"/>
		</g>
		<g id="g2999" transform="translate(495.651,950.772)">
			<path id="path3001" class="st3" d="M48-64.2v-0.5c0-3.5,0.2-5.6,0.5-6.4c0.3-0.8,1-1.2,2-1.2c1,0,1.7,0.4,2.1,1.1
				c0.4,0.7,0.5,2.6,0.5,5.7v2.2c0,2.9-0.2,4.8-0.5,5.5c-0.4,0.8-1.1,1.1-2,1.1c-1,0-1.7-0.3-2-1c-0.4-0.7-0.5-2.4-0.5-5V-64.2z
				 M42.7-64.4c0,4.5,0.6,7.6,1.7,9.3c1.2,1.7,3.2,2.5,6.1,2.5c2.9,0,5-0.8,6.2-2.5c1.2-1.7,1.7-4.8,1.7-9.3c0-4.5-0.6-7.6-1.7-9.3
				c-1.2-1.7-3.2-2.5-6.2-2.5c-2.9,0-5,0.8-6.1,2.5C43.3-72,42.7-68.9,42.7-64.4"/>
		</g>
		<g id="g3003" transform="translate(500.724,946.738)">
			<path id="path3005" class="st3" d="M57.3-71.6v22.4h4.8v-2.6c0.6,1.2,1.3,2,2.1,2.5c0.8,0.5,1.9,0.7,3.3,0.7
				c1.1,0,2.1-0.3,2.9-0.7c0.8-0.5,1.4-1.2,1.7-2.1c0.7,1,1.4,1.7,2.2,2.2c0.8,0.4,1.8,0.7,2.9,0.7c1.8,0,3.1-0.5,4-1.5
				c0.9-1,1.3-2.4,1.3-4.3v-17.2h-5.1v14.3c0,1.8-0.2,2.9-0.5,3.4c-0.4,0.5-1,0.8-2,0.8c-0.9,0-1.5-0.3-1.9-0.9
				c-0.4-0.6-0.6-1.7-0.6-3.2v-14.4h-5.1V-57c0,1.5-0.2,2.6-0.5,3.1c-0.4,0.6-1,0.8-1.8,0.8c-0.9,0-1.6-0.3-2-0.9
				c-0.4-0.6-0.6-1.6-0.6-3v-14.6"/>
		</g>
		<g id="g3007" transform="translate(512.871,951.691)">
			<path id="path3009" class="st3" d="M79.6-62.5h5v1c0,1.5-0.2,2.6-0.6,3.2c-0.4,0.6-1,0.9-2,0.9c-0.9,0-1.6-0.3-2-0.9
				c-0.4-0.6-0.6-1.7-0.6-3.1l0-0.3L79.6-62.5z M84.8-68.8h4.9l0-0.4l0-0.4c0-2.6-0.6-4.4-1.8-5.6c-1.2-1.2-3.2-1.8-5.8-1.8
				c-1.4,0-2.6,0.2-3.5,0.5c-0.9,0.4-1.7,0.9-2.3,1.6c-0.7,0.9-1.2,2-1.5,3.3c-0.3,1.3-0.4,3.7-0.4,7.1c0,2.7,0.1,4.7,0.4,5.9
				c0.3,1.2,0.7,2.1,1.3,2.9c0.6,0.8,1.5,1.4,2.5,1.8c1,0.4,2.3,0.6,3.7,0.6c1.4,0,2.6-0.2,3.6-0.6c1-0.4,1.8-1.1,2.5-1.9
				c0.6-0.7,1-1.7,1.2-2.8c0.2-1.1,0.4-3,0.4-5.5V-66H79.6l0-0.5c0-0.2,0-0.5,0-0.9c0-2.1,0.2-3.6,0.6-4.5c0.4-0.9,1.1-1.3,2-1.3
				c0.9,0,1.6,0.3,2,1C84.6-71.5,84.8-70.4,84.8-68.8"/>
		</g>
		<g id="g3011" transform="translate(517.902,946.738)">
			<path id="path3013" class="st3" d="M88.8-71.6v22.4h5v-3.6c0.7,1.5,1.5,2.6,2.3,3.2c0.8,0.6,1.8,1,3,1v-6.3l-0.6,0.1
				c-0.2,0-0.4,0-0.7,0c-1.1,0-2-0.3-2.6-1c-0.7-0.7-1-1.5-1-2.7v-13.1"/>
		</g>
		<g id="g3015" transform="translate(478.979,933.641)">
			<path id="path3017" class="st3" d="M17.4-95.6H23v-1.9c0-1.8,0.2-3.1,0.7-3.7c0.5-0.7,1.3-1,2.4-1c1.2,0,2.1,0.3,2.7,0.9
				c0.6,0.6,0.9,1.5,0.9,2.6c0,0.9-0.2,1.7-0.6,2.3c-0.4,0.6-1.3,1.5-2.8,2.5l-2.8,2c-2.5,1.7-4,3.1-4.7,4.2c-0.7,1.1-1,2.5-1,4.2
				c0,2.5,0.7,4.5,2.2,5.9c1.5,1.4,3.5,2.1,6.1,2.1c2.8,0,4.9-0.8,6.4-2.3c1.5-1.5,2.2-3.7,2.2-6.5c0-0.3,0-0.5,0-0.7l0-0.4h-5.3
				v0.8c0,1.6-0.3,2.8-0.8,3.5c-0.5,0.7-1.4,1-2.6,1c-0.9,0-1.6-0.3-2.1-0.8C23.3-81.4,23-82.1,23-83c0-1.3,1.1-2.6,3.4-4.2l0.1,0
				l3.1-2.1c2.2-1.4,3.7-2.8,4.4-4.1c0.8-1.3,1.2-2.9,1.2-4.9c0-2.7-0.8-4.8-2.3-6.3c-1.5-1.5-3.8-2.2-6.6-2.2c-3,0-5.2,0.8-6.7,2.3
				c-1.5,1.6-2.2,3.9-2.2,7.1c0,0.3,0,0.9,0.1,1.7"/>
		</g>
		<g id="g3019" transform="translate(491.946,937.852)">
			<path id="path3021" class="st3" d="M41.2-87.9v-22.4h-5.1v2.2c-0.5-0.9-1.2-1.6-2-2.1c-0.8-0.5-1.7-0.7-2.7-0.7
				c-1.6,0-2.9,0.5-3.7,1.4c-0.9,0.9-1.3,2.3-1.3,4v17.6h5v-14.6c0-1.5,0.2-2.5,0.5-3.1c0.3-0.6,0.9-0.8,1.7-0.8
				c0.9,0,1.5,0.3,1.8,0.9c0.4,0.6,0.5,1.7,0.5,3.3v14.3"/>
		</g>
		<g id="g3023" transform="translate(495.303,934.229)">
			<path id="path3025" class="st3" d="M47.4-94.5c0-3.6,0.2-5.9,0.6-6.9c0.4-1,1.1-1.5,2.1-1.5c0.9,0,1.5,0.4,1.9,1.3
				c0.3,0.8,0.5,2.9,0.5,6.2c0,3.2-0.2,5.3-0.5,6.1c-0.3,0.9-1,1.3-1.9,1.3c-1,0-1.7-0.4-2.1-1.2C47.5-89.9,47.4-91.7,47.4-94.5z
				 M42.3-114.2v30h4.9v-2.3c0.4,1,1,1.7,1.8,2.2c0.8,0.5,1.7,0.7,2.8,0.7c2.2,0,3.7-0.9,4.6-2.6c0.9-1.7,1.3-4.8,1.3-9.1
				c0-4.5-0.4-7.6-1.3-9.4c-0.9-1.7-2.4-2.6-4.5-2.6c-1.1,0-1.9,0.2-2.7,0.6c-0.7,0.4-1.3,1-1.7,1.9v-9.4"/>
		</g>
		<g id="g3027" transform="translate(502.105,934.229)">
			<path id="path3029" class="st3" d="M59.8-94.5c0-3.6,0.2-5.9,0.6-6.9c0.4-1,1.1-1.5,2.1-1.5c0.9,0,1.5,0.4,1.9,1.3
				c0.3,0.8,0.5,2.9,0.5,6.2c0,3.2-0.2,5.3-0.5,6.1c-0.3,0.9-1,1.3-1.9,1.3c-1,0-1.7-0.4-2.1-1.2C60-89.9,59.8-91.7,59.8-94.5z
				 M54.8-114.2v30h4.9v-2.3c0.4,1,1,1.7,1.8,2.2c0.8,0.5,1.7,0.7,2.8,0.7c2.2,0,3.7-0.9,4.6-2.6c0.9-1.7,1.3-4.8,1.3-9.1
				c0-4.5-0.4-7.6-1.3-9.4c-0.9-1.7-2.4-2.6-4.5-2.6c-1.1,0-1.9,0.2-2.7,0.6c-0.7,0.4-1.3,1-1.7,1.9v-9.4"/>
		</g>
		<g id="g3031" transform="translate(508.762,933.977)">
			<path id="path3033" class="st3" d="M72-95v-0.5c0-3.5,0.2-5.6,0.5-6.4c0.3-0.8,1-1.2,2-1.2c1,0,1.7,0.4,2.1,1.1
				c0.4,0.7,0.5,2.6,0.5,5.7v2.2c0,2.9-0.2,4.8-0.5,5.5c-0.4,0.8-1.1,1.1-2,1.1c-1,0-1.7-0.3-2-1c-0.4-0.7-0.5-2.4-0.5-5V-95z
				 M66.7-95.2c0,4.5,0.6,7.6,1.7,9.3c1.2,1.7,3.2,2.5,6.1,2.5c2.9,0,5-0.8,6.2-2.5c1.2-1.7,1.7-4.8,1.7-9.3c0-4.5-0.6-7.6-1.7-9.3
				c-1.2-1.7-3.2-2.5-6.2-2.5c-2.9,0-5,0.8-6.1,2.5C67.3-102.8,66.7-99.7,66.7-95.2"/>
		</g>
		<g id="g3035" transform="translate(513.835,929.942)">
			<path id="path3037" class="st3" d="M81.4-102.4V-80h5v-3.6c0.7,1.5,1.5,2.6,2.3,3.2c0.8,0.6,1.8,1,3,1v-6.3L91-85.6
				c-0.2,0-0.4,0-0.7,0c-1.1,0-2-0.3-2.6-1c-0.7-0.7-1-1.5-1-2.7v-13.1"/>
		</g>
		<g id="g3039" transform="translate(520.737,932.868)">
			<path id="path3041" class="st3" d="M94-97v-1.5c0-1.2,0.1-2,0.3-2.3c0.2-0.3,0.6-0.5,1.3-0.5l0.3,0l0.2,0v-4
				c-0.7-0.1-1.3-0.1-1.8-0.2c-0.4,0-0.8,0-1,0c-1.7,0-2.9,0.3-3.6,1c-0.7,0.7-1,2.1-1,4.3v13.4h-2v3.9h2v6.1H94v-6.1h2.1v-3.9H94"
				/>
		</g>
	</g>
</g>
</svg>
